<svg xmlns="http://www.w3.org/2000/svg" viewBox="0 0 300 48.45"><defs><style>.cls-1{fill:#fff;}</style></defs><title>logo-mpt-white</title><g id="Layer_2" data-name="Layer 2"><g id="Layer_1-2" data-name="Layer 1"><path class="cls-1" d="M76.11,36.51a13.13,13.13,0,0,0,5.57,1,11,11,0,0,0,6.08-1.57,7.78,7.78,0,0,0,3.61-6.69c0-3.62-1.64-6.17-6.25-9.75l-1.06-.79c-3-2.27-4-3.57-4-5.34,0-2.29,1.72-3.77,4.37-3.77a4.67,4.67,0,0,1,4,1.8,4.5,4.5,0,0,1,1,2.41c0,.2,0,.81.51.81s.55-.62.55-1.26c0-2.09.08-3.23.12-3.92,0-.28,0-.47,0-.62,0-.39-.32-.51-.63-.58A18.58,18.58,0,0,0,85,7.6c-5.22,0-8.86,3-8.86,7.28,0,3.3,1.64,5.93,5.65,9.06l1.74,1.36c3,2.34,3.66,4.07,3.66,5.95s-1.73,4.18-4.94,4.18a5.12,5.12,0,0,1-5.28-3.73,7.77,7.77,0,0,1-.34-1.89c0-.21,0-.77-.51-.77s-.56.8-.58,1.1v.12c0,.79-.18,2.88-.18,4.84C75.31,36,75.44,36.22,76.11,36.51Z"/><path class="cls-1" d="M94.91,13.54c.36,0,.48-.3.54-.55a4.27,4.27,0,0,1,.62-1.28c.5-.74,1.27-1,3.56-1l5.5-.15V25.88c0,3.47,0,6.46-.19,8-.11,1.08-.32,1.83-1,2a6,6,0,0,1-1.33.15c-.18,0-.73,0-.73.43s.3.51.89.51c.86,0,2,0,3-.07l1.77,0,1.79,0c1.17,0,2.63.07,4.14.07.77,0,.85-.36.85-.51s-.13-.43-.73-.43a15.9,15.9,0,0,1-1.91-.15c-1-.13-1.24-.78-1.36-1.93-.19-1.62-.19-4.61-.19-8.08V10.51l4.63.11c3.64.08,4.28,1.29,4.34,2l0,.41c0,.5.09.88.55.88s.45-.49.47-.73c0-.52,0-1.47.06-2.4s.05-1.61.05-2,0-.92-.43-.92a2.24,2.24,0,0,0-.4.07,14,14,0,0,1-3.23.31h-15c-1.2,0-2.65-.07-3.77-.19a3.33,3.33,0,0,1-1.17-.31,1.21,1.21,0,0,0-.46-.14c-.36,0-.48.4-.58.82-.06.23-.8,3.75-.8,4.38C94.44,13,94.44,13.54,94.91,13.54Z"/><path class="cls-1" d="M123.91,9.07a7.81,7.81,0,0,1,1.45.11c1.22.26,1.45.84,1.52,2s.08,2.24.08,8v6.66c0,3.47,0,6.46-.19,8-.17,1.21-.37,1.85-1,2a6,6,0,0,1-1.33.15c-.18,0-.73,0-.73.43s.3.51.89.51c.86,0,2,0,3-.07l1.77,0c.86,0,1.74,0,2.87.07,1.82.07,4.09.15,7.61.15,1.44,0,1.88,0,2.17-1.08a29.51,29.51,0,0,0,.5-4.23c0-.38,0-.81-.43-.81s-.47.29-.54.67c-.26,1.54-.71,2.28-1.63,2.7a9.57,9.57,0,0,1-3.5.44c-3.89,0-4.34-.62-4.41-3.05,0-.78,0-2.73,0-4.3,0-.63,0-1.19,0-1.56v-3c0-.25,0-.25.1-.25.85,0,4.63,0,5.36.11,1.51.16,1.87.82,2,1.37a6.18,6.18,0,0,1,.12,1c0,.13,0,.25,0,.34a.43.43,0,0,0,.47.47c.47,0,.47-.55.47-.85s.08-1.78.15-2.53a20.86,20.86,0,0,1,.26-2.42,2.47,2.47,0,0,0,0-.35.38.38,0,0,0-.39-.43c-.24,0-.4.19-.65.48l0,.06c-.31.35-.85.45-1.73.52-.56,0-2.7.08-6,.08-.09,0-.14,0-.14-.29V10.65c0-.25.07-.25.14-.25.71,0,4.71.08,5.35.15,1.88.23,2.19.67,2.43,1.28a3.93,3.93,0,0,1,.22,1.31c0,.18,0,.66.47.66s.48-.39.51-.52c0-.3.1-1.09.14-1.73,0-.35,0-.64.05-.78a15.46,15.46,0,0,1,.25-2.09,2.22,2.22,0,0,0,.05-.38c0-.31-.12-.47-.36-.47a1.37,1.37,0,0,0-.42.09l-.22.06a14.37,14.37,0,0,1-1.6.22c-.65,0-6.82,0-9.45,0-.44,0-1.12,0-1.91,0-1.06,0-2.37-.07-3.54-.07-.36,0-1,0-1,.47S123.68,9.07,123.91,9.07Z"/><path class="cls-1" d="M247.49,33.36c3.26,2.83,7.41,4.15,13.05,4.15a22.07,22.07,0,0,0,6.86-.88,1.46,1.46,0,0,0,1.06-1.18,35.84,35.84,0,0,0,.84-5.07c0-.61-.29-.7-.47-.7-.44,0-.52.31-.62.86A6.22,6.22,0,0,1,266.95,33c-1.52,1.74-3.57,2.07-6.82,2.07-8,0-11.78-8-11.78-13.33,0-4.46,1.09-7.55,3.44-9.7,1.73-1.58,4-2.31,7-2.31,3.24,0,6.28.93,7.58,2.3a5.28,5.28,0,0,1,1.44,3.39c0,.34,0,1,.51,1s.55-.57.58-1,0-1.14.06-1.93,0-1.55.06-2.16c0-.8.1-1.28.14-1.6a4.15,4.15,0,0,0,0-.49c0-.16-.07-.53-.68-.58s-1.19-.18-1.84-.31-1.24-.24-1.94-.34a37.61,37.61,0,0,0-5.5-.38c-5.2,0-9,1.28-12,4a14.54,14.54,0,0,0-4.47,10.46C242.75,26.81,244.35,30.6,247.49,33.36Z"/><path class="cls-1" d="M203.29,9.07a5.15,5.15,0,0,1,1.33.15c.77.17,1.11.75,1.19,2s.08,2.24.08,8v6.66c0,3.71,0,6.65-.19,8.23-.12,1.19-.38,1.65-1,1.78a6,6,0,0,1-1.33.15c-.18,0-.73,0-.73.43s.3.51.89.51c.86,0,2,0,3-.07l1.78,0,1.74,0c1.17,0,2.64.08,4.16.08.77,0,.85-.36.85-.51s-.13-.43-.73-.43a15.86,15.86,0,0,1-1.91-.15c-1-.14-1.29-.72-1.4-1.74-.15-1.62-.15-4.55-.15-8.27V19.23c0-5.76,0-6.8.08-8,.08-1.36.4-1.87,1.29-2a6.29,6.29,0,0,1,1.11-.11c.22,0,.73,0,.73-.51s-.65-.43-.92-.43c-.8,0-1.84,0-2.76.07-.74,0-1.43,0-1.85,0s-1.3,0-2.14-.05-2-.06-2.77-.06c-.36,0-1,0-1,.43S203.07,9.07,203.29,9.07Z"/><path class="cls-1" d="M219.93,9.07a7.82,7.82,0,0,1,1.45.11c1.22.26,1.45.84,1.52,2s.08,2.24.08,8v6.66c0,3.47,0,6.46-.19,8-.17,1.21-.37,1.85-1,2a6,6,0,0,1-1.33.15c-.18,0-.73,0-.73.43s.3.51.89.51c.86,0,2,0,3-.07l1.77,0c.86,0,1.74,0,2.87.07,1.82.07,4.09.15,7.61.15,1.44,0,1.88,0,2.17-1.08a29.56,29.56,0,0,0,.5-4.23c0-.38,0-.81-.43-.81s-.47.29-.54.67c-.26,1.54-.7,2.28-1.63,2.7a9.57,9.57,0,0,1-3.5.44c-3.89,0-4.34-.62-4.41-3.05,0-.78,0-2.73,0-4.3,0-.63,0-1.19,0-1.56v-3c0-.25,0-.25.1-.25.85,0,4.63,0,5.35.11,1.51.16,1.87.82,2,1.37a6.13,6.13,0,0,1,.12,1c0,.12,0,.24,0,.34a.43.43,0,0,0,.47.47c.47,0,.47-.55.47-.85s.08-1.78.15-2.53a20.84,20.84,0,0,1,.26-2.42,2.36,2.36,0,0,0,0-.35.38.38,0,0,0-.39-.43c-.24,0-.4.19-.65.48l0,.06c-.31.35-.85.45-1.73.52-.56,0-2.7.08-6,.08-.09,0-.14,0-.14-.29V10.65c0-.25.07-.25.14-.25.71,0,4.71.08,5.35.15,1.88.23,2.19.67,2.43,1.28a3.94,3.94,0,0,1,.22,1.31c0,.18,0,.66.47.66s.48-.39.51-.52c0-.3.1-1.1.14-1.73,0-.34,0-.64.05-.77a15.5,15.5,0,0,1,.25-2.09,2.22,2.22,0,0,0,.05-.38c0-.31-.12-.47-.36-.47a1.38,1.38,0,0,0-.42.09l-.22.06a14.41,14.41,0,0,1-1.6.22c-.65,0-6.82,0-9.45,0-.44,0-1.12,0-1.91,0-1.06,0-2.37-.07-3.53-.07-.36,0-1,0-1,.47S219.7,9.07,219.93,9.07Z"/><path class="cls-1" d="M298.93,34.66c0-.39-.22-.61-.71-.61h-.84v2.2h.3v-1h.43l.6,1H299l-.62-1A.59.59,0,0,0,298.93,34.66ZM298,35h-.35V34.3h.48c.23,0,.48,0,.48.35S298.31,35,298,35Z"/><path class="cls-1" d="M292.23,31c-.39,0-.47.29-.54.67-.26,1.54-.71,2.28-1.63,2.7a9.57,9.57,0,0,1-3.5.44c-3.9,0-4.34-.62-4.41-3.05,0-.78,0-2.73,0-4.3,0-.63,0-1.19,0-1.56v-3c0-.25,0-.25.1-.25.85,0,4.63,0,5.36.11,1.51.16,1.87.82,2,1.37a6.13,6.13,0,0,1,.12,1c0,.12,0,.24,0,.34a.43.43,0,0,0,.47.47c.47,0,.47-.55.47-.85s.08-1.78.15-2.53a20.85,20.85,0,0,1,.26-2.42,2.38,2.38,0,0,0,0-.35.38.38,0,0,0-.39-.43c-.24,0-.4.19-.65.48l0,.06c-.31.35-.85.45-1.73.52-.56,0-2.7.08-6,.08-.09,0-.13,0-.13-.29V10.65c0-.25.07-.25.13-.25.71,0,4.71.08,5.35.15,1.88.23,2.19.67,2.43,1.28a3.94,3.94,0,0,1,.22,1.31c0,.18,0,.66.47.66s.48-.39.51-.52c0-.3.1-1.09.14-1.73,0-.34,0-.64.05-.78a15.51,15.51,0,0,1,.25-2.09,2.22,2.22,0,0,0,.05-.38c0-.31-.12-.47-.36-.47a1.37,1.37,0,0,0-.42.09l-.22.06a14.38,14.38,0,0,1-1.6.22c-.65,0-6.82,0-9.45,0-.44,0-1.12,0-1.91,0-1.06,0-2.37-.07-3.54-.07-.36,0-1,0-1,.47s.54.47.77.47a7.82,7.82,0,0,1,1.45.11c1.22.26,1.45.84,1.52,2s.08,2.24.08,8v6.66c0,3.47,0,6.46-.19,8-.17,1.21-.37,1.85-1,2a6,6,0,0,1-1.33.15c-.18,0-.73,0-.73.43s.3.51.89.51c.86,0,2,0,3-.07l1.77,0c.86,0,1.74,0,2.87.07,1.82.07,4.09.15,7.61.15,1.44,0,1.88,0,2.17-1.08a29.56,29.56,0,0,0,.5-4.23C292.66,31.4,292.66,31,292.23,31Z"/><path class="cls-1" d="M298.05,33.2A1.95,1.95,0,1,0,300,35.14,1.95,1.95,0,0,0,298.05,33.2Zm0,3.63a1.69,1.69,0,1,1,1.63-1.69A1.63,1.63,0,0,1,298.05,36.83Z"/><path class="cls-1" d="M291.71,45.55H199.09s-.15.06-.15.56.15.55.15.55h92.62a.53.53,0,0,0,.5-.54A.57.57,0,0,0,291.71,45.55Z"/><path class="cls-1" d="M168.34,45.55H.78s-.57,0-.57.57.57.54.57.54H168.34s.15-.07.15-.55S168.34,45.55,168.34,45.55Z"/><path class="cls-1" d="M5.2,36.9C6,36.9,8,37,9.88,37c.67,0,1.07-.1,1.07-.52,0-.24-.31-.33-.67-.33a8,8,0,0,1-1.87-.24,1.51,1.51,0,0,1-1.33-1.52,20.1,20.1,0,0,1,.13-2.24L9.52,13.23H9.7c1.56,3.57,4.23,9.57,4.63,10.57.53,1.33,4,8.62,5.12,10.81C20.15,36,20.6,37,21,37s.62-.43,1.65-2.67l9.7-21.61h.18l2.67,20.95a8,8,0,0,1,.08,1.24c-.24.86-.48,1-1.25,1.17a5.39,5.39,0,0,1-1.33.14c-.44,0-.71.1-.71.33,0,.43.36.52.8.52.85,0,1.94-.05,2.87-.09h.12c1.78.14,7.92,0,9,0a2.69,2.69,0,0,0,.66-.07c.92,0,1.79,0,2.42-.07l.83,0c.58,0,1.28,0,2,.06s1.43.06,2,.06c.25,0,.77,0,.77-.51s-.33-.43-.7-.43h-.57c-1.23,0-1.38-.56-1.38-1a7.22,7.22,0,0,1,.56-2.26l2-5.41c.07-.21.11-.21.22-.21h8.43a.24.24,0,0,1,.26.18l3,8a.55.55,0,0,1,0,.46.45.45,0,0,1-.24.23c-.31,0-.65.1-.65.47s.46.39,1.09.42h.17c3,.08,5.81.08,7.15.08s1.87,0,1.87-.51-.4-.43-.62-.43a8.18,8.18,0,0,1-1.56-.15c-.84-.2-1.88-.84-3.24-4s-3.91-9.63-6-14.77C61.78,13,60.38,9.5,60,8.59S59.34,7.3,58.91,7.3s-.72.49-1.18,1.59L48.25,32.64c-.82,2-1.52,3.12-3.11,3.32A11.33,11.33,0,0,1,44,36h-.15a9.45,9.45,0,0,1-1.34-.34c-1.33-.43-1.78-1.81-2.18-4.81l-4-29.42c-.13-1-.4-1.48-.8-1.48s-.67.38-1,1.14L22.38,28.33,10.23,1.48C9.65.24,9.39,0,9,0s-.62.43-.76,1.24l-4.4,31C3.65,33.9,3.29,35.75,2,36a5.39,5.39,0,0,1-1.33.14c-.44,0-.71.1-.71.33,0,.43.36.52.8.52C2.22,37,4.36,36.9,5.2,36.9Zm49.18-12,3.48-9.32a.62.62,0,0,1,.09-.23,1.07,1.07,0,0,1,.06.2l3.41,9.38a.09.09,0,0,1,0,0H54.39A.14.14,0,0,1,54.39,24.87Z"/><path class="cls-1" d="M194.27,46.11a2.86,2.86,0,0,0-.44.09,15.91,15.91,0,0,1-3.43.5h-.08a14.09,14.09,0,0,1-6.56-1.84,32.55,32.55,0,0,1-8.54-7.13A67.61,67.61,0,0,1,169,29.29c-.64-1-1.31-2-2-3a20.23,20.23,0,0,1-1.7-2.77c0-.22.58-.7,1.12-1.16a16.34,16.34,0,0,0,1.52-1.44,8.81,8.81,0,0,0,2.31-6.27,6.33,6.33,0,0,0-4.43-6,20.05,20.05,0,0,0-5.94-.69L157.6,8l-2.08,0-.69,0c-1.14-.06-3.51-.17-4.81-.17-.24,0-.74,0-.74.44a.39.39,0,0,0,.44.36,10.15,10.15,0,0,1,1.54.11c1.24.26,1.48.85,1.55,2.07s.08,2.3.08,8.29v6.76c0,3.75,0,6.71-.19,8.32-.17,1.23-.37,1.87-1,2a9.93,9.93,0,0,1-1.49.15c-.32,0-.44.19-.44.36,0,.44.52.44.74.44,1,0,3.82-.08,4.76-.11h.26l.5,0c.94,0,2.91.1,4.54.1.62,0,.74-.24.74-.44s-.11-.36-.44-.36-1.34-.08-1.87-.15c-1-.13-1.26-.81-1.39-2-.16-1.36-.18-5.71-.19-7.56,0-.34,0-.61,0-.76s0-.1,0-.16c0-.23,0-.57.08-.66a3.5,3.5,0,0,1,1.1-.07h.93c1.29,0,1.93.65,2.66,1.83.63,1,3,4.74,4,6l.07.09c4.24,5.71,7.31,9.84,12.69,13.15a16.46,16.46,0,0,0,8.48,2.49l.7,0c4.32-.21,6.11-1.72,6.33-2.08a.17.17,0,0,0,0-.17l0-.08ZM162.58,23a5.77,5.77,0,0,1-1.68.23h0c-.56,0-1.15-.06-1.83-.13a8.33,8.33,0,0,1-1.6-.24,10.82,10.82,0,0,1-.05-1.3V19.79c0-.4,0-1.1,0-1.94,0-2.56-.06-7.29.05-7.75a3.25,3.25,0,0,1,1.16-.36h.1l.67,0a6.68,6.68,0,0,1,3.24.74,6.2,6.2,0,0,1,3,4.87C166.15,19.57,163.88,22.61,162.58,23Z"/><path class="cls-1" d="M189.19,8.13c-.9,0-1.91,0-2.9.06s-1.83.05-2.58.05c-.44,0-1.12,0-1.91,0-1.06,0-2.37-.07-3.54-.07-.36,0-1,0-1,.47s.54.47.77.47a7.82,7.82,0,0,1,1.45.11c1.22.26,1.45.84,1.52,2s.08,2.24.08,8v6.66c0,3.47,0,6.46-.19,8-.16,1.18-.37,1.85-1,2a6,6,0,0,1-1.33.15c-.18,0-.73,0-.73.43s.3.51.89.51c.86,0,2,0,3-.07l1.77,0,1.68,0c1.18,0,2.64.08,4.18.08.77,0,.85-.36.85-.51s-.13-.43-.73-.43a15.86,15.86,0,0,1-1.91-.15c-1-.13-1.24-.78-1.36-1.93-.19-1.62-.19-4.61-.19-8.08V10.76c0-.23,0-.52.21-.6a5.11,5.11,0,0,1,1.43-.14,5.47,5.47,0,0,1,3.69,1.44A7.22,7.22,0,0,1,193.56,17c0,3.79-2.88,6.11-4.94,6.11-.6,0-1.19,0-1.19.55s.35.43.56.47a5.6,5.6,0,0,0,.82,0,9.05,9.05,0,0,0,9.43-9.28,6.74,6.74,0,0,0-1.93-4.59C195.67,9.73,194,8.13,189.19,8.13Z"/></g></g></svg>